<?xml version="1.0" encoding="utf-8"?>
<!-- Generator: Adobe Illustrator 25.3.0, SVG Export Plug-In . SVG Version: 6.00 Build 0)  -->
<svg version="1.1" id="Calque_1" xmlns="http://www.w3.org/2000/svg" xmlns:xlink="http://www.w3.org/1999/xlink" x="0px" y="0px"
	 viewBox="0 0 1097.1 778" style="enable-background:new 0 0 1097.1 778;" xml:space="preserve">
<style type="text/css">
	.st0{fill-rule:evenodd;clip-rule:evenodd;fill:#E4260E;}
	.st1{fill-rule:evenodd;clip-rule:evenodd;fill:#1D1D1B;}
	.st2{fill:#1D1D1B;}
</style>
<g>
	<path class="st0" d="M378,47.6c2.5,20.5,1.7,25.2-2.5,44.2c11.2,1.5,33.7,0.2,46.1,0.2c183.3,0,366.5,0,549.8,0
		c15.6,0,27.9-1,41.5,4.5c19.2,7.8,36.8,26.4,38.9,52.7c1.1,13.9,0.2,31.6,0.2,45.8v466.4c0,17-0.4,25.3-7.3,38.8
		c-11.1,21.7-33.3,33.1-58.5,33.1H115.7c-16.1,0-25.4-0.7-38.2-7.5c-22-11.7-32.7-33.2-32.7-58.7V200.7c0-38.6-7-81.8,34.9-102.3
		c13.2-6.4,23.4-6.3,39.6-6.3c30.5,0,61.1,0.3,91.6,0c-0.6-14.6-6.7-10.9-2.3-44.5c-34.3,0-69.2-0.6-103.4,0
		C49.1,48.7,3.3,93.1,0.4,148.8c-0.8,16.5-0.1,34.6-0.1,51.3v458.6c0,16.6,0.3,31.4,5.3,45.9c12.1,35.3,41,64,82.2,71.5
		c15.1,2.8,33.9,1.7,49.8,1.7c273.7,0,547.5,0,821.2,0c46.4,0,65.7,2.2,102-27.1c12.4-10,24.9-29.6,30.5-46.3
		c5.2-15.6,5.3-27.8,5.3-45.1V251.5c0-33.3,1.3-69.1-0.1-102.2c-2.2-55.2-47.6-99.9-103.2-101.7c-33.6-1.1-69.1-0.1-102.9-0.1H428.7
		C412.6,47.5,393.8,46.6,378,47.6z"/>
	<g>
		<path class="st0" d="M787.9,405.4c0.5-2.7,7.6-17.2,9.3-20.8c13.3-27.7,37.2-79.3,47.5-106.2l13.2-33.3c1.2-3,2.3-8.3,4.9-9.9
			c1.5,3.3,6.1,75.6,7,86c1.1,11.9,7.8,78.2,7.3,84.2H787.9L787.9,405.4z M761.9,473.1h119.3l8.6,107.6l92.9-0.3l-48.5-414.3H821.5
			c-2.2,1-2.8,3.6-3.9,6c-1.1,2.4-2,4.3-3.2,6.6c-2.3,4.5-4.2,8.4-6.3,12.8c-4.2,8.7-8.6,17.4-12.7,26.1
			c-8.1,17.3-16.8,34.2-25.2,51.7L618.7,580.7l93.9-0.2L761.9,473.1z"/>
		<path class="st0" d="M609.8,254c1.2-1.7,27.2-70.5,27.6-73.7c-3.5-1.2-6.9-3.4-10.6-5c-27.4-12-59.6-15.9-89.6-15.5
			c-62.7,1-130.2,28.4-152.5,88.6c-12,32.3-11.5,71.1,6.8,97.3l6.6,8.9c2.2,2.9,4.5,5.5,6.8,8c5.8,6.5,17.3,15.8,24.6,21.2
			c32.6,24.3,86.9,38.7,88.9,76.1c1.9,36.1-33.9,51.9-69.9,50.8c-18.1-0.5-35.5-3.3-51.8-8.3c-23.8-7.2-36.2-15.9-41.9-17.8
			c-4.2,11.5-9.7,24.4-14.7,36c-2.3,5.4-14,33.3-14.5,36.7c2.8,1.2,6.5,3.9,9.7,5.8c22.7,13.3,57.5,20.2,83.6,22.2
			c67.4,5.1,137-10.5,173.9-66.5c15.4-23.3,25.3-63.9,16.6-97.3c-17.7-68.2-92.7-82.3-126.6-115.1c-25.4-24.5-12.3-58.9,27.3-68.3
			c17.4-4.1,38.1-2.9,55.3,0.5C592.6,244.3,593.5,248.6,609.8,254z"/>
		<path class="st1" d="M133.8,213.9l2.5,72.3c6.2-0.9,77.2-35.1,83.3-36.1l-62.1,330.6h89.4l78.3-417.2h-74.6l-32.1,13.7
			C210.1,180.7,139.6,212.2,133.8,213.9z"/>
	</g>
	<path class="st0" d="M287.7,0.3c-19.2,1.8-35.5,11.9-43.3,21.8C235,34,226.7,49.3,228.7,70.9c3.1,33.7,33,62.3,70.9,58.7
		c33.5-3.3,61.9-33,58.3-70.9C354.7,25.5,325.2-3.3,287.7,0.3z"/>
	<g>
		<path class="st2" d="M118.2,653.1c2,1,5.1,2.1,8.3,2.1c3.5,0,5.3-1.4,5.3-3.6c0-2.1-1.6-3.3-5.6-4.7c-5.5-1.9-9.1-5-9.1-9.8
			c0-5.7,4.7-10,12.6-10c3.8,0,6.5,0.8,8.5,1.7l-1.7,6.1c-1.3-0.6-3.7-1.6-7-1.6c-3.3,0-4.8,1.5-4.8,3.2c0,2.1,1.9,3.1,6.2,4.7
			c5.9,2.2,8.6,5.2,8.6,9.9c0,5.6-4.3,10.4-13.4,10.4c-3.8,0-7.6-1-9.4-2.1L118.2,653.1z"/>
		<path class="st2" d="M168.5,648.5c0,8.8-6.3,12.9-12.7,12.9c-7.1,0-12.5-4.6-12.5-12.4c0-7.8,5.1-12.8,12.9-12.8
			C163.6,636.1,168.5,641.2,168.5,648.5z M151.1,648.7c0,4.1,1.7,7.3,4.9,7.3c2.9,0,4.8-2.9,4.8-7.3c0-3.6-1.4-7.3-4.8-7.3
			C152.4,641.5,151.1,645.2,151.1,648.7z"/>
		<path class="st2" d="M173.1,625.8h7.5v35h-7.5V625.8z"/>
		<path class="st2" d="M209.5,653.1c0,3.2,0.1,5.7,0.2,7.7h-6.5l-0.3-3.4h-0.1c-0.9,1.5-3.2,3.9-7.6,3.9c-4.9,0-8.5-3.1-8.5-10.5
			v-14.2h7.6v13c0,3.5,1.1,5.6,3.8,5.6c2.1,0,3.3-1.4,3.8-2.6c0.2-0.4,0.2-1,0.2-1.6v-14.4h7.6v16.5H209.5z"/>
		<path class="st2" d="M223.9,630.1v6.6h5.4v5.5h-5.4v8.7c0,2.9,0.7,4.2,3,4.2c1,0,1.5-0.1,2.2-0.2v5.7c-1,0.4-2.8,0.7-4.9,0.7
			c-2.4,0-4.4-0.9-5.6-2.1c-1.4-1.4-2.1-3.8-2.1-7.2v-9.9h-3.2v-5.5h3.2v-4.5L223.9,630.1z"/>
		<path class="st2" d="M241.3,630c0,2.1-1.6,3.8-4,3.8s-3.9-1.7-3.9-3.8c0-2.2,1.5-3.8,3.9-3.8S241.3,627.8,241.3,630z M233.6,660.8
			v-24.1h7.5v24.1H233.6z"/>
		<path class="st2" d="M270.9,648.5c0,8.8-6.3,12.9-12.7,12.9c-7.1,0-12.5-4.6-12.5-12.4c0-7.8,5.1-12.8,12.9-12.8
			C266,636.1,270.9,641.2,270.9,648.5z M253.5,648.7c0,4.1,1.7,7.3,4.9,7.3c2.9,0,4.8-2.9,4.8-7.3c0-3.6-1.4-7.3-4.8-7.3
			C254.8,641.5,253.5,645.2,253.5,648.7z"/>
		<path class="st2" d="M275.5,644.4c0-3-0.1-5.6-0.2-7.7h6.5l0.3,3.3h0.1c1-1.5,3.5-3.9,7.5-3.9c4.9,0,8.6,3.3,8.6,10.4v14.3h-7.5
			v-13.4c0-3.1-1.1-5.2-3.8-5.2c-2.1,0-3.3,1.4-3.8,2.8c-0.2,0.5-0.3,1.2-0.3,1.9v13.9h-7.5L275.5,644.4L275.5,644.4z"/>
		<path class="st2" d="M304.4,654.2c1.4,0.8,4.2,1.8,6.5,1.8s3.2-0.8,3.2-2s-0.7-1.8-3.6-2.8c-5-1.7-6.9-4.4-6.9-7.2
			c0-4.5,3.9-7.9,9.8-7.9c2.8,0,5.3,0.6,6.8,1.4l-1.3,5.2c-1.1-0.6-3.2-1.4-5.2-1.4c-1.8,0-2.9,0.7-2.9,2c0,1.1,0.9,1.7,3.9,2.8
			c4.6,1.6,6.5,3.9,6.6,7.5c0,4.5-3.6,7.8-10.5,7.8c-3.2,0-6-0.7-7.8-1.7L304.4,654.2z"/>
		<path class="st2" d="M344.2,630.1v6.6h5.4v5.5h-5.4v8.7c0,2.9,0.7,4.2,3,4.2c1,0,1.5-0.1,2.2-0.2v5.7c-1,0.4-2.8,0.7-4.9,0.7
			c-2.4,0-4.4-0.9-5.6-2.1c-1.4-1.4-2.1-3.8-2.1-7.2v-9.9h-3.2v-5.5h3.2v-4.5L344.2,630.1z"/>
		<path class="st2" d="M359.5,651.1c0.2,3.1,3.3,4.6,6.8,4.6c2.6,0,4.6-0.3,6.7-1l1,5.1c-2.5,1-5.5,1.5-8.7,1.5
			c-8.2,0-12.9-4.8-12.9-12.3c0-6.1,3.8-12.9,12.2-12.9c7.8,0,10.8,6.1,10.8,12c0,1.3-0.1,2.4-0.2,3L359.5,651.1L359.5,651.1z
			 M368.3,646c0-1.8-0.8-4.9-4.2-4.9c-3.2,0-4.4,2.9-4.6,4.9H368.3z"/>
		<path class="st2" d="M397.8,660.2c-1.3,0.6-3.8,1.1-6.7,1.1c-7.8,0-12.8-4.8-12.8-12.4c0-7.1,4.8-12.8,13.8-12.8
			c2,0,4.1,0.3,5.7,0.9l-1.2,5.6c-0.9-0.4-2.2-0.7-4.2-0.7c-3.9,0-6.5,2.8-6.5,6.8c0,4.4,3,6.8,6.6,6.8c1.8,0,3.2-0.3,4.3-0.8
			L397.8,660.2z"/>
		<path class="st2" d="M402,625.8h7.5v13.8h0.1c0.8-1,1.8-1.9,3-2.5c1.1-0.6,2.5-0.9,3.9-0.9c4.8,0,8.4,3.3,8.4,10.6v14.1h-7.5
			v-13.3c0-3.2-1.1-5.3-3.9-5.3c-2,0-3.2,1.3-3.8,2.6c-0.2,0.5-0.2,1.1-0.2,1.7v14.3H402V625.8z"/>
		<path class="st2" d="M430.9,644.4c0-3-0.1-5.6-0.2-7.7h6.5l0.3,3.3h0.1c1-1.5,3.5-3.9,7.5-3.9c4.9,0,8.6,3.3,8.6,10.4v14.3h-7.4
			v-13.4c0-3.1-1.1-5.2-3.8-5.2c-2.1,0-3.3,1.4-3.8,2.8c-0.2,0.5-0.3,1.2-0.3,1.9v13.9h-7.5L430.9,644.4L430.9,644.4z"/>
		<path class="st2" d="M467.5,630c0,2.1-1.6,3.8-4,3.8s-3.9-1.7-3.9-3.8c0-2.2,1.5-3.8,3.9-3.8S467.5,627.8,467.5,630z M459.8,660.8
			v-24.1h7.5v24.1H459.8z"/>
		<path class="st2" d="M489.2,657.8L489.2,657.8c-1.6,2.3-4,3.6-7.3,3.6c-5.2,0-10-4.6-10-12.3c0-8.6,5.5-12.9,10.7-12.9
			c3.1,0,5.4,1.1,6.7,3.4h0.1l0.2-2.8h7.3c0,2.3-0.1,4.7-0.1,7.3v26.7h-7.5v-13H489.2z M489.2,646.8c0-0.4,0-0.8-0.1-1.2
			c-0.4-1.9-2-3.6-4.3-3.6c-3.5,0-5.2,2.9-5.2,6.8c0,4,1.9,6.7,5.1,6.7c2.1,0,3.9-1.4,4.3-3.4c0.1-0.5,0.2-1.1,0.2-1.6V646.8z"/>
		<path class="st2" d="M525.4,653.1c0,3.2,0.1,5.7,0.2,7.7h-6.5l-0.3-3.4h-0.1c-0.9,1.5-3.2,3.9-7.6,3.9c-4.9,0-8.5-3.1-8.5-10.5
			v-14.2h7.6v13c0,3.5,1.1,5.6,3.8,5.6c2.1,0,3.3-1.4,3.8-2.6c0.2-0.4,0.2-1,0.2-1.6v-14.4h7.6v16.5H525.4z"/>
		<path class="st2" d="M537.2,651.1c0.2,3.1,3.3,4.6,6.8,4.6c2.6,0,4.6-0.3,6.7-1l1,5.1c-2.5,1-5.5,1.5-8.7,1.5
			c-8.2,0-12.9-4.8-12.9-12.3c0-6.1,3.8-12.9,12.2-12.9c7.8,0,10.8,6.1,10.8,12c0,1.3-0.1,2.4-0.2,3L537.2,651.1L537.2,651.1z
			 M546,646c0-1.8-0.8-4.9-4.2-4.9c-3.2,0-4.4,2.9-4.6,4.9H546z"/>
		<path class="st2" d="M557.4,654.2c1.4,0.8,4.2,1.8,6.5,1.8s3.2-0.8,3.2-2s-0.7-1.8-3.6-2.8c-5-1.7-6.9-4.4-6.9-7.2
			c0-4.5,3.9-7.9,9.8-7.9c2.8,0,5.3,0.6,6.8,1.4l-1.3,5.2c-1.1-0.6-3.2-1.4-5.2-1.4c-1.8,0-2.9,0.7-2.9,2c0,1.1,0.9,1.7,3.9,2.8
			c4.6,1.6,6.5,3.9,6.6,7.5c0,4.5-3.6,7.8-10.5,7.8c-3.2,0-6-0.7-7.8-1.7L557.4,654.2z"/>
		<path class="st2" d="M594.6,651.1c0.2,3.1,3.3,4.6,6.8,4.6c2.6,0,4.6-0.3,6.7-1l1,5.1c-2.5,1-5.5,1.5-8.7,1.5
			c-8.2,0-12.9-4.8-12.9-12.3c0-6.1,3.8-12.9,12.2-12.9c7.8,0,10.8,6.1,10.8,12c0,1.3-0.1,2.4-0.2,3L594.6,651.1L594.6,651.1z
			 M603.4,646c0-1.8-0.8-4.9-4.2-4.9c-3.2,0-4.4,2.9-4.6,4.9H603.4z"/>
		<path class="st2" d="M623.2,630.1v6.6h5.4v5.5h-5.4v8.7c0,2.9,0.7,4.2,3,4.2c1,0,1.5-0.1,2.2-0.2v5.7c-1,0.4-2.8,0.7-4.9,0.7
			c-2.4,0-4.4-0.9-5.6-2.1c-1.4-1.4-2.1-3.8-2.1-7.2v-9.9h-3.2v-5.5h3.2v-4.5L623.2,630.1z"/>
		<path class="st2" d="M651.3,630.1v6.6h5.4v5.5h-5.4v8.7c0,2.9,0.7,4.2,3,4.2c1,0,1.5-0.1,2.2-0.2l0.1,5.7c-1,0.4-2.8,0.7-4.9,0.7
			c-2.4,0-4.4-0.9-5.6-2.1c-1.4-1.4-2.1-3.8-2.1-7.2v-9.9h-3.2v-5.5h3.2v-4.5L651.3,630.1z"/>
		<path class="st2" d="M666.6,651.1c0.2,3.1,3.3,4.6,6.8,4.6c2.6,0,4.6-0.3,6.7-1l1,5.1c-2.5,1-5.5,1.5-8.7,1.5
			c-8.2,0-12.9-4.8-12.9-12.3c0-6.1,3.8-12.9,12.2-12.9c7.8,0,10.8,6.1,10.8,12c0,1.3-0.1,2.4-0.2,3L666.6,651.1L666.6,651.1z
			 M675.4,646c0-1.8-0.8-4.9-4.2-4.9c-3.2,0-4.4,2.9-4.6,4.9H675.4z"/>
		<path class="st2" d="M704.9,660.2c-1.3,0.6-3.9,1.1-6.7,1.1c-7.8,0-12.8-4.8-12.8-12.4c0-7.1,4.8-12.8,13.8-12.8
			c2,0,4.1,0.3,5.7,0.9l-1.2,5.6c-0.9-0.4-2.2-0.7-4.2-0.7c-3.9,0-6.5,2.8-6.5,6.8c0,4.4,3,6.8,6.6,6.8c1.8,0,3.2-0.3,4.3-0.8
			L704.9,660.2z"/>
		<path class="st2" d="M709.1,625.8h7.5v13.8h0.1c0.8-1,1.8-1.9,3-2.5c1.1-0.6,2.5-0.9,3.9-0.9c4.8,0,8.4,3.3,8.4,10.6v14.1h-7.5
			v-13.3c0-3.2-1.1-5.3-3.9-5.3c-2,0-3.2,1.3-3.8,2.6c-0.2,0.5-0.2,1.1-0.2,1.7v14.3h-7.5V625.8z"/>
		<path class="st2" d="M738,644.4c0-3-0.1-5.6-0.2-7.7h6.5l0.3,3.3h0.1c1-1.5,3.5-3.9,7.5-3.9c4.9,0,8.6,3.3,8.6,10.4v14.3h-7.5
			v-13.4c0-3.1-1.1-5.2-3.8-5.2c-2.1,0-3.3,1.4-3.8,2.8c-0.2,0.5-0.3,1.2-0.3,1.9v13.9h-7.5v-16.4H738z"/>
		<path class="st2" d="M790.7,648.5c0,8.8-6.3,12.9-12.7,12.9c-7.1,0-12.5-4.6-12.5-12.4c0-7.8,5.1-12.8,12.9-12.8
			C785.8,636.1,790.7,641.2,790.7,648.5z M773.2,648.7c0,4.1,1.7,7.3,4.9,7.3c2.9,0,4.8-2.9,4.8-7.3c0-3.6-1.4-7.3-4.8-7.3
			C774.6,641.5,773.2,645.2,773.2,648.7z"/>
		<path class="st2" d="M795.3,625.8h7.5v35h-7.5V625.8z"/>
		<path class="st2" d="M832.7,648.5c0,8.8-6.3,12.9-12.7,12.9c-7.1,0-12.5-4.6-12.5-12.4c0-7.8,5.1-12.8,12.9-12.8
			C827.8,636.1,832.7,641.2,832.7,648.5z M815.3,648.7c0,4.1,1.7,7.3,4.9,7.3c2.9,0,4.8-2.9,4.8-7.3c0-3.6-1.4-7.3-4.8-7.3
			C816.6,641.5,815.3,645.2,815.3,648.7z"/>
		<path class="st2" d="M860.4,657.3c0,4.6-0.9,8.4-3.7,10.9c-2.7,2.3-6.3,3-9.8,3c-3.2,0-6.5-0.6-8.7-1.9l1.5-5.7
			c1.5,0.9,4.2,1.8,7,1.8c3.6,0,6.3-1.9,6.3-6.4v-1.6h-0.1c-1.4,2-3.8,3.2-6.5,3.2c-6,0-10.2-4.8-10.2-11.8c0-7.7,5-12.7,11-12.7
			c3.3,0,5.4,1.4,6.6,3.4h0.1l0.2-2.9h6.5c-0.1,1.5-0.2,3.6-0.2,7.2L860.4,657.3L860.4,657.3z M852.9,646.5c0-0.5,0-1-0.1-1.4
			c-0.5-2-2-3.3-4-3.3c-2.7,0-4.9,2.5-4.9,6.9c0,3.6,1.8,6.4,4.9,6.4c1.9,0,3.5-1.3,3.9-3.1c0.2-0.5,0.2-1.3,0.2-2L852.9,646.5
			L852.9,646.5z"/>
		<path class="st2" d="M874.1,630c0,2.1-1.6,3.8-4,3.8s-3.9-1.7-3.9-3.8c-0.1-2.2,1.5-3.8,3.9-3.8
			C872.5,626.2,874.1,627.8,874.1,630z M866.4,660.8v-24.1h7.5v24.1H866.4z"/>
		<path class="st2" d="M895.8,657.8L895.8,657.8c-1.6,2.3-4,3.6-7.3,3.6c-5.2,0-10-4.6-10-12.3c0-8.6,5.5-12.9,10.7-12.9
			c3.1,0,5.4,1.1,6.7,3.4h0.1l0.2-2.8h7.3c0,2.3-0.1,4.7-0.1,7.3v26.7h-7.5L895.8,657.8L895.8,657.8z M895.8,646.8
			c0-0.4-0.1-0.8-0.1-1.2c-0.4-1.9-2-3.6-4.3-3.6c-3.5,0-5.2,2.9-5.2,6.8c0,4,1.9,6.7,5.1,6.7c2.1,0,3.9-1.4,4.3-3.4
			c0.1-0.5,0.2-1.1,0.2-1.6V646.8z"/>
		<path class="st2" d="M932,653.1c0,3.2,0.1,5.7,0.2,7.7h-6.5l-0.3-3.4h-0.1c-0.9,1.5-3.2,3.9-7.6,3.9c-4.9,0-8.5-3.1-8.5-10.5
			v-14.2h7.6v13c0,3.5,1.1,5.6,3.8,5.6c2.1,0,3.3-1.4,3.8-2.6c0.2-0.4,0.2-1,0.2-1.6v-14.4h7.5L932,653.1L932,653.1z"/>
		<path class="st2" d="M943.8,651.1c0.2,3.1,3.3,4.6,6.8,4.6c2.6,0,4.6-0.3,6.7-1l1,5.1c-2.5,1-5.5,1.5-8.7,1.5
			c-8.2,0-12.9-4.8-12.9-12.3c0-6.1,3.8-12.9,12.2-12.9c7.8,0,10.8,6.1,10.8,12c0,1.3-0.1,2.4-0.2,3L943.8,651.1L943.8,651.1z
			 M952.6,646c0-1.8-0.8-4.9-4.2-4.9c-3.2,0-4.4,2.9-4.6,4.9H952.6z"/>
		<path class="st2" d="M964,654.2c1.4,0.8,4.2,1.8,6.5,1.8s3.2-0.8,3.2-2s-0.7-1.8-3.6-2.8c-5-1.7-6.9-4.4-6.9-7.2
			c0-4.5,3.9-7.9,9.8-7.9c2.8,0,5.3,0.6,6.8,1.4l-1.3,5.2c-1.1-0.6-3.2-1.4-5.2-1.4c-1.8,0-2.9,0.7-2.9,2c0,1.1,0.9,1.7,3.9,2.8
			c4.6,1.6,6.5,3.9,6.6,7.5c0,4.5-3.6,7.8-10.5,7.8c-3.2,0-6-0.7-7.8-1.7L964,654.2z"/>
	</g>
</g>
</svg>
